# xmcd CD database file
#
# Track frame offsets:
#	150
#	25337
#	48954
#	76474
#	101367
#	125725
#	145699
#	169694
#	193895
#	218621
#	246830
#
# Disc length: 3681 seconds
#
# Revision: 0
# Processed by: cddbd v1.4PL0 Copyright (c) Steve Scherf et al.
# Submitted via: CDex 1.51
#
DISCID=940e5f0b
DTITLE=Mojo Club - The Remix Album/Some Essential Pieces
DYEAR=1999
DGENRE=Jazz
TTITLE0=Rocker HI-FI meet Ella Fitzgerald - Sunshine Of Your Love
TTITLE1=Thew Maxwell Implosion meets Baden Powell - Blues a volonte
TTITLE2=Paolo Scotti meets James Last - Happy Brasilia
TTITLE3=Shanti meets Sergio Mendez and Brazil '66 - For What It's Worth
TTITLE4=Original Jazz Rocker meet Volker Kriegel - Zoom
TTITLE5=Andy Smith and Scott Hendy meet Wolfgang Dauner - Just Bring It Out
TTITLE6=Erobique meets Jonny Teupen - Hold Me, I've Got To Leave You
TTITLE7=Freddy Fresh meets Mary Lou Williams - Praise The Lord
TTITLE8=Vinyl Vibes meet Monty Alexander - Monticello
TTITLE9=Phoneheads feat. Michael Suer meet Jorge Ben - Oba, la vem ela
TTITLE10=Freddy Fresh meets Baden Powell - Blues a volonte
EXTD=YEAR: 1999
EXTT0=
EXTT1=
EXTT2=
EXTT3=
EXTT4=
EXTT5=
EXTT6=
EXTT7=
EXTT8=
EXTT9=
EXTT10=
PLAYORDER=
